# xmcd
#
# Track frame offsets: 
#        300
#        20710
#        35936
#        48274
#        62206
#        86299
#        107390
#        122161
#        136502
#        152465
#        174571
#        194653
#
# Disc length: 2773 seconds
#
# Revision: 0
# Processed by: cddbd v1.5.2PL0 Copyright (c) Steve Scherf et al.
# Submitted via: ExactAudioCopy v0.99pb3
#
DISCID=9d0ad10c
DTITLE=Boogie Chilli - Live Time Blues
DYEAR=2006
DGENRE=Blues
TTITLE0=Boom Boom - John Lee Hooker
TTITLE1=Standing Around Crying - Mc Kinley Morganfield
TTITLE2=This is Hip - J L Hooker
TTITLE3=Baby Please Don't Go - Muddy Waters
TTITLE4=Walking Blues - Robert Jonson
TTITLE5=Crowlin' Kingsnake - J L Hooker
TTITLE6=Crossroads Blues - Robert Johnson
TTITLE7=Sinner's Player - Lowell Glen and Lowell Fulson
TTITLE8=Who Do You Love - Bo Diddley Fabulous Thunderbirds
TTITLE9=Ramblin' On My Mind - Robert Johnson
TTITLE10=Help Me - Sonny BoyWilliamson
TTITLE11=One Bourbon One Scotch One Beer - J L Hooker
EXTD=
EXTT0=
EXTT1=
EXTT2=
EXTT3=
EXTT4=
EXTT5=
EXTT6=
EXTT7=
EXTT8=
EXTT9=
EXTT10=
EXTT11=
PLAYORDER=
